<mxfile host="app.diagrams.net" modified="2021-09-13T11:16:43.822Z" agent="5.0 (Macintosh; Intel Mac OS X 10_15_7) AppleWebKit/537.36 (KHTML, like Gecko) Chrome/93.0.4577.63 Safari/537.36" etag="n7r8zYoqGjr5pLReOe_S" version="15.1.4" type="github">
  <diagram id="0w82SK2QTF1lje_9Vqo6" name="Page-1">
    <mxGraphModel dx="842" dy="589" grid="1" gridSize="10" guides="1" tooltips="1" connect="1" arrows="1" fold="1" page="1" pageScale="1" pageWidth="827" pageHeight="1169" math="0" shadow="0">
      <root>
        <mxCell id="0" />
        <mxCell id="1" parent="0" />
        <mxCell id="h8FWp38skAzf_V1491gm-1" value="" style="shape=process;whiteSpace=wrap;html=1;backgroundOutline=1;rotation=-90;" vertex="1" parent="1">
          <mxGeometry x="340" y="155" width="340" height="110" as="geometry" />
        </mxCell>
        <mxCell id="h8FWp38skAzf_V1491gm-7" value="Ulla L" style="shape=umlActor;verticalLabelPosition=bottom;verticalAlign=top;html=1;outlineConnect=0;" vertex="1" parent="1">
          <mxGeometry x="625" y="310" width="20" height="40" as="geometry" />
        </mxCell>
        <mxCell id="h8FWp38skAzf_V1491gm-8" value="Raimo" style="shape=umlActor;verticalLabelPosition=bottom;verticalAlign=top;html=1;outlineConnect=0;" vertex="1" parent="1">
          <mxGeometry x="780" y="310" width="20" height="40" as="geometry" />
        </mxCell>
        <mxCell id="h8FWp38skAzf_V1491gm-9" value="" style="shape=process;whiteSpace=wrap;html=1;backgroundOutline=1;rotation=-90;" vertex="1" parent="1">
          <mxGeometry x="540" y="155" width="340" height="110" as="geometry" />
        </mxCell>
        <mxCell id="h8FWp38skAzf_V1491gm-10" value="" style="ellipse;whiteSpace=wrap;html=1;aspect=fixed;" vertex="1" parent="1">
          <mxGeometry x="570" y="530" width="80" height="80" as="geometry" />
        </mxCell>
        <mxCell id="h8FWp38skAzf_V1491gm-11" value="" style="shape=process;whiteSpace=wrap;html=1;backgroundOutline=1;rotation=0;" vertex="1" parent="1">
          <mxGeometry y="490" width="340" height="110" as="geometry" />
        </mxCell>
        <mxCell id="h8FWp38skAzf_V1491gm-12" value="Tuomas&lt;br&gt;" style="shape=umlActor;verticalLabelPosition=bottom;verticalAlign=top;html=1;outlineConnect=0;" vertex="1" parent="1">
          <mxGeometry x="595" y="610" width="30" height="60" as="geometry" />
        </mxCell>
        <mxCell id="h8FWp38skAzf_V1491gm-14" value="Heli" style="shape=umlActor;verticalLabelPosition=bottom;verticalAlign=top;html=1;outlineConnect=0;" vertex="1" parent="1">
          <mxGeometry x="640" y="580" width="30" height="60" as="geometry" />
        </mxCell>
        <mxCell id="h8FWp38skAzf_V1491gm-16" value="Juha" style="shape=umlActor;verticalLabelPosition=bottom;verticalAlign=top;html=1;outlineConnect=0;" vertex="1" parent="1">
          <mxGeometry x="625" y="100" width="20" height="40" as="geometry" />
        </mxCell>
        <mxCell id="h8FWp38skAzf_V1491gm-17" value="Janita" style="shape=umlActor;verticalLabelPosition=bottom;verticalAlign=top;html=1;outlineConnect=0;" vertex="1" parent="1">
          <mxGeometry x="780" y="100" width="20" height="40" as="geometry" />
        </mxCell>
        <mxCell id="h8FWp38skAzf_V1491gm-18" value="Leena" style="shape=umlActor;verticalLabelPosition=bottom;verticalAlign=top;html=1;outlineConnect=0;" vertex="1" parent="1">
          <mxGeometry x="780" y="170" width="20" height="40" as="geometry" />
        </mxCell>
        <mxCell id="h8FWp38skAzf_V1491gm-19" value="Sara" style="shape=umlActor;verticalLabelPosition=bottom;verticalAlign=top;html=1;outlineConnect=0;" vertex="1" parent="1">
          <mxGeometry x="310" y="420" width="20" height="40" as="geometry" />
        </mxCell>
        <mxCell id="h8FWp38skAzf_V1491gm-20" value="Jyrki" style="shape=umlActor;verticalLabelPosition=bottom;verticalAlign=top;html=1;outlineConnect=0;" vertex="1" parent="1">
          <mxGeometry x="310" y="610" width="20" height="40" as="geometry" />
        </mxCell>
        <mxCell id="h8FWp38skAzf_V1491gm-21" value="Marika" style="shape=umlActor;verticalLabelPosition=bottom;verticalAlign=top;html=1;outlineConnect=0;" vertex="1" parent="1">
          <mxGeometry x="270" y="610" width="20" height="40" as="geometry" />
        </mxCell>
        <mxCell id="h8FWp38skAzf_V1491gm-22" value="Juho" style="shape=umlActor;verticalLabelPosition=bottom;verticalAlign=top;html=1;outlineConnect=0;" vertex="1" parent="1">
          <mxGeometry x="270" y="420" width="20" height="40" as="geometry" />
        </mxCell>
        <mxCell id="h8FWp38skAzf_V1491gm-23" value="Markku" style="shape=umlActor;verticalLabelPosition=bottom;verticalAlign=top;html=1;outlineConnect=0;" vertex="1" parent="1">
          <mxGeometry x="780" y="240" width="20" height="40" as="geometry" />
        </mxCell>
        <mxCell id="h8FWp38skAzf_V1491gm-24" value="Heli" style="shape=umlActor;verticalLabelPosition=bottom;verticalAlign=top;html=1;outlineConnect=0;" vertex="1" parent="1">
          <mxGeometry x="625" y="240" width="20" height="40" as="geometry" />
        </mxCell>
        <mxCell id="h8FWp38skAzf_V1491gm-27" value="Kirsi" style="shape=umlActor;verticalLabelPosition=bottom;verticalAlign=top;html=1;outlineConnect=0;" vertex="1" parent="1">
          <mxGeometry x="625" y="170" width="20" height="40" as="geometry" />
        </mxCell>
        <mxCell id="h8FWp38skAzf_V1491gm-28" value="Kristina" style="shape=umlActor;verticalLabelPosition=bottom;verticalAlign=top;html=1;outlineConnect=0;" vertex="1" parent="1">
          <mxGeometry x="780" y="40" width="20" height="40" as="geometry" />
        </mxCell>
        <mxCell id="h8FWp38skAzf_V1491gm-29" value="Mikko" style="shape=umlActor;verticalLabelPosition=bottom;verticalAlign=top;html=1;outlineConnect=0;" vertex="1" parent="1">
          <mxGeometry x="625" y="40" width="20" height="40" as="geometry" />
        </mxCell>
        <mxCell id="h8FWp38skAzf_V1491gm-30" value="Perttu" style="shape=umlActor;verticalLabelPosition=bottom;verticalAlign=top;html=1;outlineConnect=0;" vertex="1" parent="1">
          <mxGeometry x="230" y="610" width="20" height="40" as="geometry" />
        </mxCell>
        <mxCell id="h8FWp38skAzf_V1491gm-32" value="Katja" style="shape=umlActor;verticalLabelPosition=bottom;verticalAlign=top;html=1;outlineConnect=0;" vertex="1" parent="1">
          <mxGeometry x="230" y="420" width="20" height="40" as="geometry" />
        </mxCell>
        <mxCell id="h8FWp38skAzf_V1491gm-33" value="Lauri" style="shape=umlActor;verticalLabelPosition=bottom;verticalAlign=top;html=1;outlineConnect=0;" vertex="1" parent="1">
          <mxGeometry x="420" y="310" width="20" height="40" as="geometry" />
        </mxCell>
        <mxCell id="h8FWp38skAzf_V1491gm-34" value="Nikky" style="shape=umlActor;verticalLabelPosition=bottom;verticalAlign=top;html=1;outlineConnect=0;" vertex="1" parent="1">
          <mxGeometry x="575" y="310" width="20" height="40" as="geometry" />
        </mxCell>
        <mxCell id="h8FWp38skAzf_V1491gm-35" value="Upi" style="shape=umlActor;verticalLabelPosition=bottom;verticalAlign=top;html=1;outlineConnect=0;" vertex="1" parent="1">
          <mxGeometry x="575" y="240" width="20" height="40" as="geometry" />
        </mxCell>
        <mxCell id="h8FWp38skAzf_V1491gm-36" value="Ulla S" style="shape=umlActor;verticalLabelPosition=bottom;verticalAlign=top;html=1;outlineConnect=0;" vertex="1" parent="1">
          <mxGeometry x="420" y="240" width="20" height="40" as="geometry" />
        </mxCell>
        <mxCell id="h8FWp38skAzf_V1491gm-39" value="Pete" style="shape=umlActor;verticalLabelPosition=bottom;verticalAlign=top;html=1;outlineConnect=0;" vertex="1" parent="1">
          <mxGeometry x="420" y="170" width="20" height="40" as="geometry" />
        </mxCell>
        <mxCell id="h8FWp38skAzf_V1491gm-43" value="Pauliina" style="shape=umlActor;verticalLabelPosition=bottom;verticalAlign=top;html=1;outlineConnect=0;" vertex="1" parent="1">
          <mxGeometry x="575" y="170" width="20" height="40" as="geometry" />
        </mxCell>
        <mxCell id="h8FWp38skAzf_V1491gm-44" value="Matti" style="shape=umlActor;verticalLabelPosition=bottom;verticalAlign=top;html=1;outlineConnect=0;" vertex="1" parent="1">
          <mxGeometry x="190" y="420" width="20" height="40" as="geometry" />
        </mxCell>
        <mxCell id="h8FWp38skAzf_V1491gm-45" value="Pyry" style="shape=umlActor;verticalLabelPosition=bottom;verticalAlign=top;html=1;outlineConnect=0;" vertex="1" parent="1">
          <mxGeometry x="575" y="100" width="20" height="40" as="geometry" />
        </mxCell>
        <mxCell id="h8FWp38skAzf_V1491gm-46" value="Janica" style="shape=umlActor;verticalLabelPosition=bottom;verticalAlign=top;html=1;outlineConnect=0;" vertex="1" parent="1">
          <mxGeometry x="420" y="100" width="20" height="40" as="geometry" />
        </mxCell>
      </root>
    </mxGraphModel>
  </diagram>
</mxfile>
